<svg xmlns="http://www.w3.org/2000/svg" viewBox="0 0 1787.74 1974.33"><defs><style>.cls-1{fill:#35383b;fill-rule:evenodd;}</style></defs><g id="Layer_2" data-name="Layer 2"><g id="Layer_1-2" data-name="Layer 1"><path class="cls-1" d="M1787.74,446.1V406.44L893.87,0,0,406.44V446.1A1787.49,1787.49,0,0,0,893.87,1974.33,1787.49,1787.49,0,0,0,1787.74,446.1M168.49,512.52,893.87,182.7l725.38,329.82a1621.25,1621.25,0,0,1-725.38,1266.4A1621.25,1621.25,0,0,1,168.49,512.52Z"/><polygon class="cls-1" points="256.8 525.36 893.87 815.03 1530.95 525.36 893.87 235.68 256.8 525.36"/><path class="cls-1" d="M869,858.35,220.42,563.45A1573.12,1573.12,0,0,0,869,1703.16Z"/><path class="cls-1" d="M918.74,858.35v844.81A1573.12,1573.12,0,0,0,1567.32,563.45Z"/></g></g></svg>